<svg width="100" height="145" viewBox="0 0 100 145" fill="none" xmlns="http://www.w3.org/2000/svg">
<path fill-rule="evenodd" clip-rule="evenodd" d="M82.4592 88.0328C93.1944 78.8621 100 65.2258 100 50C100 22.3858 77.6142 0 50 0C22.7199 0 0.542465 21.8474 0.00979614 49H0V50V136.5C0 140.642 3.35786 144 7.5 144C11.6421 144 15 140.642 15 136.5V85.7072V50V47H15.1268C16.6485 29.0744 31.6806 15 50 15C69.33 15 85 30.67 85 50C85 61.4398 79.5116 71.5979 71.0242 77.9844C67.1517 79.3499 65.0925 83.5829 66.4214 87.4784L83.9751 138.939C85.3124 142.859 89.5745 144.953 93.4948 143.616C97.4152 142.278 99.5091 138.016 98.1718 134.096L82.4592 88.0328Z" fill="#FDC04D"/>
</svg>
